<svg width="123" height="54" viewBox="0 0 123 54" fill="none" xmlns="http://www.w3.org/2000/svg">
<path d="M5.21191 15.154C4.60524 15.154 4.02657 15.0467 3.47591 14.832C2.93457 14.608 2.45391 14.2953 2.03391 13.894C1.61391 13.4833 1.28257 12.9887 1.03991 12.41C0.806573 11.8313 0.689906 11.1873 0.689906 10.478C0.689906 9.76867 0.806573 9.12933 1.03991 8.56C1.28257 7.99067 1.61391 7.50533 2.03391 7.104C2.45391 6.70267 2.93457 6.39467 3.47591 6.18C4.02657 5.96533 4.60524 5.858 5.21191 5.858C5.81857 5.858 6.39257 5.96533 6.93391 6.18C7.48457 6.39467 7.96991 6.70267 8.38991 7.104C8.80991 7.50533 9.13657 7.99067 9.36991 8.56C9.61257 9.12933 9.73391 9.76867 9.73391 10.478C9.73391 11.1873 9.61257 11.8313 9.36991 12.41C9.13657 12.9887 8.80991 13.4833 8.38991 13.894C7.96991 14.2953 7.48457 14.608 6.93391 14.832C6.39257 15.0467 5.81857 15.154 5.21191 15.154ZM5.21191 14.566C5.92124 14.566 6.56524 14.398 7.14391 14.062C7.73191 13.7167 8.19857 13.236 8.54391 12.62C8.89857 12.004 9.07591 11.29 9.07591 10.478C9.07591 9.666 8.89857 8.95667 8.54391 8.35C8.19857 7.74333 7.73191 7.272 7.14391 6.936C6.56524 6.6 5.92124 6.432 5.21191 6.432C4.51191 6.432 3.86791 6.6 3.27991 6.936C2.69191 7.272 2.22057 7.74333 1.86591 8.35C1.52057 8.95667 1.34791 9.666 1.34791 10.478C1.34791 11.29 1.52057 12.004 1.86591 12.62C2.22057 13.236 2.69191 13.7167 3.27991 14.062C3.86791 14.398 4.51191 14.566 5.21191 14.566ZM5.32391 13.25C4.85724 13.25 4.42791 13.1427 4.03591 12.928C3.65324 12.704 3.34524 12.3867 3.11191 11.976C2.88791 11.556 2.77591 11.0567 2.77591 10.478C2.77591 9.93667 2.89724 9.47 3.13991 9.078C3.38257 8.67667 3.69991 8.36867 4.09191 8.154C4.49324 7.93933 4.91791 7.832 5.36591 7.832C5.75791 7.832 6.08924 7.91133 6.35991 8.07C6.63991 8.21933 6.89191 8.406 7.11591 8.63L6.62591 9.176C6.43924 8.98933 6.24791 8.84933 6.05191 8.756C5.86524 8.65333 5.65057 8.602 5.40791 8.602C4.89457 8.602 4.47924 8.77933 4.16191 9.134C3.85391 9.47933 3.69991 9.92733 3.69991 10.478C3.69991 11.094 3.84924 11.584 4.14791 11.948C4.45591 12.3027 4.86191 12.48 5.36591 12.48C5.66457 12.48 5.92591 12.424 6.14991 12.312C6.37391 12.1907 6.58857 12.0413 6.79391 11.864L7.21391 12.452C6.95257 12.676 6.67724 12.8673 6.38791 13.026C6.09857 13.1753 5.74391 13.25 5.32391 13.25ZM13.7846 15V14.314C14.6806 13.418 15.4413 12.634 16.0666 11.962C16.6919 11.2807 17.1679 10.6693 17.4946 10.128C17.8213 9.57733 17.9846 9.064 17.9846 8.588C17.9846 8.07467 17.8446 7.65467 17.5646 7.328C17.2846 7.00133 16.8599 6.838 16.2906 6.838C15.9173 6.838 15.5719 6.94533 15.2546 7.16C14.9373 7.36533 14.6479 7.61733 14.3866 7.916L13.7286 7.258C14.1019 6.84733 14.4986 6.52067 14.9186 6.278C15.3479 6.026 15.8519 5.9 16.4306 5.9C17.2613 5.9 17.9146 6.14267 18.3906 6.628C18.8666 7.104 19.1046 7.73867 19.1046 8.532C19.1046 9.092 18.9459 9.66133 18.6286 10.24C18.3206 10.8093 17.8913 11.4113 17.3406 12.046C16.7993 12.6713 16.1739 13.3527 15.4646 14.09C15.7073 14.0713 15.9593 14.0527 16.2206 14.034C16.4819 14.0153 16.7293 14.006 16.9626 14.006H19.5526V15H13.7846ZM23.6696 15.168C22.7736 15.168 22.0689 14.7667 21.5556 13.964C21.0516 13.152 20.7996 11.9993 20.7996 10.506C20.7996 9.00333 21.0516 7.86 21.5556 7.076C22.0689 6.292 22.7736 5.9 23.6696 5.9C24.5563 5.9 25.2516 6.292 25.7556 7.076C26.2689 7.86 26.5256 9.00333 26.5256 10.506C26.5256 11.9993 26.2689 13.152 25.7556 13.964C25.2516 14.7667 24.5563 15.168 23.6696 15.168ZM23.6696 14.244C24.1923 14.244 24.6123 13.95 24.9296 13.362C25.2469 12.7647 25.4056 11.8127 25.4056 10.506C25.4056 9.19933 25.2469 8.26133 24.9296 7.692C24.6123 7.11333 24.1923 6.824 23.6696 6.824C23.1469 6.824 22.7223 7.11333 22.3956 7.692C22.0783 8.26133 21.9196 9.19933 21.9196 10.506C21.9196 11.8127 22.0783 12.7647 22.3956 13.362C22.7223 13.95 23.1469 14.244 23.6696 14.244ZM28.2486 15V14.048H30.2926V7.468H28.6686V6.726C29.0792 6.65133 29.4339 6.56267 29.7326 6.46C30.0406 6.348 30.3159 6.21733 30.5586 6.068H31.4406V14.048H33.2886V15H28.2486ZM35.7396 8.77C35.7396 9.34867 35.8749 9.81067 36.1456 10.156C36.4256 10.492 36.8409 10.66 37.3916 10.66C37.6902 10.66 38.0029 10.5667 38.3296 10.38C38.6656 10.1933 38.9782 9.89 39.2676 9.47C39.1929 8.602 38.9876 7.944 38.6516 7.496C38.3156 7.03867 37.8629 6.81 37.2936 6.81C36.8642 6.81 36.4956 6.992 36.1876 7.356C35.8889 7.71067 35.7396 8.182 35.7396 8.77ZM36.9716 15.168C36.4956 15.168 36.0756 15.0793 35.7116 14.902C35.3569 14.7153 35.0582 14.4913 34.8156 14.23L35.4596 13.502C35.6462 13.7167 35.8656 13.8893 36.1176 14.02C36.3789 14.1507 36.6496 14.216 36.9296 14.216C37.3496 14.216 37.7369 14.0947 38.0916 13.852C38.4462 13.6093 38.7309 13.208 38.9456 12.648C39.1696 12.088 39.2862 11.332 39.2956 10.38C39.0156 10.7347 38.6889 11.0147 38.3156 11.22C37.9422 11.4253 37.5689 11.528 37.1956 11.528C36.4302 11.528 35.8142 11.2993 35.3476 10.842C34.8902 10.3753 34.6616 9.68467 34.6616 8.77C34.6616 8.20067 34.7829 7.70133 35.0256 7.272C35.2682 6.84267 35.5856 6.50667 35.9776 6.264C36.3789 6.02133 36.8176 5.9 37.2936 5.9C37.8816 5.9 38.4089 6.05867 38.8756 6.376C39.3422 6.69333 39.7062 7.16933 39.9676 7.804C40.2382 8.43867 40.3736 9.23667 40.3736 10.198C40.3736 11.3927 40.2102 12.354 39.8836 13.082C39.5662 13.81 39.1509 14.342 38.6376 14.678C38.1242 15.0047 37.5689 15.168 36.9716 15.168ZM47.6573 15.168C47.1066 15.168 46.5886 15.028 46.1033 14.748C45.6273 14.468 45.2399 14.062 44.9413 13.53C44.6519 12.998 44.5073 12.3587 44.5073 11.612C44.5073 10.8467 44.6519 10.198 44.9413 9.666C45.2399 9.134 45.6273 8.728 46.1033 8.448C46.5886 8.168 47.1066 8.028 47.6573 8.028C48.2173 8.028 48.7353 8.168 49.2113 8.448C49.6873 8.728 50.0699 9.134 50.3593 9.666C50.6579 10.198 50.8073 10.8467 50.8073 11.612C50.8073 12.3587 50.6579 12.998 50.3593 13.53C50.0699 14.062 49.6873 14.468 49.2113 14.748C48.7353 15.028 48.2173 15.168 47.6573 15.168ZM47.6573 14.216C48.2453 14.216 48.7166 13.978 49.0713 13.502C49.4353 13.0167 49.6173 12.3867 49.6173 11.612C49.6173 10.828 49.4353 10.1933 49.0713 9.708C48.7166 9.22267 48.2453 8.98 47.6573 8.98C47.0786 8.98 46.6073 9.22267 46.2433 9.708C45.8793 10.1933 45.6973 10.828 45.6973 11.612C45.6973 12.3867 45.8793 13.0167 46.2433 13.502C46.6073 13.978 47.0786 14.216 47.6573 14.216ZM55.6092 15.168C55.2918 15.168 54.9605 15.0933 54.6152 14.944C54.2792 14.7853 53.9618 14.5707 53.6632 14.3H53.6212L53.5232 15H52.5992V5.032H53.7472V7.748L53.7192 8.98C54.0272 8.70933 54.3632 8.48533 54.7272 8.308C55.1005 8.12133 55.4738 8.028 55.8472 8.028C56.7338 8.028 57.4058 8.34067 57.8632 8.966C58.3205 9.59133 58.5492 10.4313 58.5492 11.486C58.5492 12.2607 58.4092 12.9233 58.1292 13.474C57.8585 14.0247 57.4992 14.4447 57.0512 14.734C56.6125 15.0233 56.1318 15.168 55.6092 15.168ZM55.4132 14.202C55.9732 14.202 56.4352 13.964 56.7992 13.488C57.1725 13.0027 57.3592 12.34 57.3592 11.5C57.3592 10.7533 57.2192 10.1513 56.9392 9.694C56.6685 9.22733 56.2112 8.994 55.5672 8.994C55.2778 8.994 54.9838 9.07333 54.6852 9.232C54.3865 9.39067 54.0738 9.61933 53.7472 9.918V13.488C54.0458 13.7493 54.3398 13.936 54.6292 14.048C54.9278 14.1507 55.1892 14.202 55.4132 14.202ZM61.7528 15L59.3028 8.196H60.4928L61.7808 12.06C61.8834 12.396 61.9861 12.732 62.0888 13.068C62.2008 13.404 62.3081 13.7353 62.4108 14.062H62.4668C62.5694 13.7353 62.6721 13.404 62.7748 13.068C62.8868 12.732 62.9894 12.396 63.0828 12.06L64.3708 8.196H65.5048L63.0968 15H61.7528ZM66.8179 15V8.196H67.9659V15H66.8179ZM67.4059 6.796C67.1819 6.796 66.9953 6.73067 66.8459 6.6C66.7059 6.46 66.6359 6.27333 66.6359 6.04C66.6359 5.816 66.7059 5.634 66.8459 5.494C66.9953 5.354 67.1819 5.284 67.4059 5.284C67.6299 5.284 67.8119 5.354 67.9519 5.494C68.1013 5.634 68.1759 5.816 68.1759 6.04C68.1759 6.27333 68.1013 6.46 67.9519 6.6C67.8119 6.73067 67.6299 6.796 67.4059 6.796ZM70.8652 15.168C70.6319 15.168 70.4312 15.0887 70.2632 14.93C70.1046 14.762 70.0252 14.552 70.0252 14.3C70.0252 14.0293 70.1046 13.8147 70.2632 13.656C70.4312 13.488 70.6319 13.404 70.8652 13.404C71.0892 13.404 71.2806 13.488 71.4392 13.656C71.6072 13.8147 71.6912 14.0293 71.6912 14.3C71.6912 14.552 71.6072 14.762 71.4392 14.93C71.2806 15.0887 71.0892 15.168 70.8652 15.168ZM74.9676 15.168C74.5382 15.168 74.2256 15.0373 74.0296 14.776C73.8429 14.5053 73.7496 14.1227 73.7496 13.628V5.032H74.8976V13.712C74.8976 13.8893 74.9302 14.02 74.9956 14.104C75.0609 14.1787 75.1356 14.216 75.2196 14.216C75.2569 14.216 75.2896 14.216 75.3176 14.216C75.3549 14.2067 75.4062 14.1973 75.4716 14.188L75.6256 15.056C75.5509 15.0933 75.4622 15.1213 75.3596 15.14C75.2569 15.1587 75.1262 15.168 74.9676 15.168ZM77.3179 15V8.196H78.4659V15H77.3179ZM77.9059 6.796C77.6819 6.796 77.4953 6.73067 77.3459 6.6C77.2059 6.46 77.1359 6.27333 77.1359 6.04C77.1359 5.816 77.2059 5.634 77.3459 5.494C77.4953 5.354 77.6819 5.284 77.9059 5.284C78.1299 5.284 78.3119 5.354 78.4519 5.494C78.6013 5.634 78.6759 5.816 78.6759 6.04C78.6759 6.27333 78.6013 6.46 78.4519 6.6C78.3119 6.73067 78.1299 6.796 77.9059 6.796ZM80.7632 15V8.196H81.7152L81.8132 9.176H81.8552C82.1819 8.84933 82.5272 8.57867 82.8912 8.364C83.2552 8.14 83.6706 8.028 84.1372 8.028C84.8559 8.028 85.3786 8.25667 85.7052 8.714C86.0412 9.162 86.2092 9.82 86.2092 10.688V15H85.0612V10.842C85.0612 10.2073 84.9586 9.74533 84.7532 9.456C84.5479 9.16667 84.2212 9.022 83.7732 9.022C83.4279 9.022 83.1152 9.11067 82.8352 9.288C82.5646 9.46533 82.2566 9.72667 81.9112 10.072V15H80.7632ZM88.4195 15V5.032H89.5535V11.78H89.5955L92.4935 8.196H93.7675L91.4855 10.926L94.0755 15H92.8155L90.8275 11.724L89.5535 13.208V15H88.4195ZM96.1309 15.168C95.8975 15.168 95.6969 15.0887 95.5289 14.93C95.3702 14.762 95.2909 14.552 95.2909 14.3C95.2909 14.0293 95.3702 13.8147 95.5289 13.656C95.6969 13.488 95.8975 13.404 96.1309 13.404C96.3549 13.404 96.5462 13.488 96.7049 13.656C96.8729 13.8147 96.9569 14.0293 96.9569 14.3C96.9569 14.552 96.8729 14.762 96.7049 14.93C96.5462 15.0887 96.3549 15.168 96.1309 15.168ZM101.553 15.168C100.955 15.168 100.414 15.028 99.9288 14.748C99.4435 14.468 99.0608 14.062 98.7808 13.53C98.5008 12.998 98.3608 12.3587 98.3608 11.612C98.3608 10.8467 98.5101 10.198 98.8088 9.666C99.1168 9.134 99.5181 8.728 100.013 8.448C100.517 8.168 101.058 8.028 101.637 8.028C102.085 8.028 102.467 8.10733 102.785 8.266C103.111 8.42467 103.391 8.61133 103.625 8.826L103.037 9.582C102.841 9.40467 102.631 9.26 102.407 9.148C102.192 9.036 101.949 8.98 101.679 8.98C101.268 8.98 100.899 9.092 100.573 9.316C100.255 9.53067 100.003 9.83867 99.8168 10.24C99.6395 10.632 99.5508 11.0893 99.5508 11.612C99.5508 12.3867 99.7421 13.0167 100.125 13.502C100.517 13.978 101.025 14.216 101.651 14.216C101.968 14.216 102.262 14.1507 102.533 14.02C102.803 13.88 103.041 13.7167 103.247 13.53L103.751 14.3C103.443 14.5707 103.102 14.7853 102.729 14.944C102.355 15.0933 101.963 15.168 101.553 15.168ZM107.595 15.168C107.044 15.168 106.526 15.028 106.041 14.748C105.565 14.468 105.177 14.062 104.879 13.53C104.589 12.998 104.445 12.3587 104.445 11.612C104.445 10.8467 104.589 10.198 104.879 9.666C105.177 9.134 105.565 8.728 106.041 8.448C106.526 8.168 107.044 8.028 107.595 8.028C108.155 8.028 108.673 8.168 109.149 8.448C109.625 8.728 110.007 9.134 110.297 9.666C110.595 10.198 110.745 10.8467 110.745 11.612C110.745 12.3587 110.595 12.998 110.297 13.53C110.007 14.062 109.625 14.468 109.149 14.748C108.673 15.028 108.155 15.168 107.595 15.168ZM107.595 14.216C108.183 14.216 108.654 13.978 109.009 13.502C109.373 13.0167 109.555 12.3867 109.555 11.612C109.555 10.828 109.373 10.1933 109.009 9.708C108.654 9.22267 108.183 8.98 107.595 8.98C107.016 8.98 106.545 9.22267 106.181 9.708C105.817 10.1933 105.635 10.828 105.635 11.612C105.635 12.3867 105.817 13.0167 106.181 13.502C106.545 13.978 107.016 14.216 107.595 14.216ZM112.537 15V8.196H113.489L113.587 9.176H113.629C113.927 8.84933 114.254 8.57867 114.609 8.364C114.963 8.14 115.341 8.028 115.743 8.028C116.265 8.028 116.671 8.14467 116.961 8.378C117.259 8.602 117.479 8.91933 117.619 9.33C117.973 8.94733 118.333 8.63467 118.697 8.392C119.061 8.14933 119.448 8.028 119.859 8.028C120.559 8.028 121.077 8.25667 121.413 8.714C121.758 9.162 121.931 9.82 121.931 10.688V15H120.783V10.842C120.783 10.2073 120.68 9.74533 120.475 9.456C120.269 9.16667 119.952 9.022 119.523 9.022C119.019 9.022 118.449 9.372 117.815 10.072V15H116.667V10.842C116.667 10.2073 116.564 9.74533 116.359 9.456C116.153 9.16667 115.831 9.022 115.393 9.022C114.889 9.022 114.319 9.372 113.685 10.072V15H112.537Z" fill="#CBDFE6"/>
<path d="M46.7272 50.4917C45.8878 50.4917 45.1183 50.3454 44.4188 50.0529C43.732 49.7477 43.1405 49.3152 42.6445 48.7556C42.1485 48.196 41.7605 47.5155 41.4807 46.7142C41.2136 45.9129 41.0801 45.0035 41.0801 43.986C41.0801 42.9685 41.2136 42.0655 41.4807 41.2769C41.7605 40.4756 42.1485 39.8079 42.6445 39.2737C43.1405 38.7268 43.732 38.3134 44.4188 38.0336C45.1183 37.7411 45.8878 37.5948 46.7272 37.5948C47.5667 37.5948 48.3298 37.7411 49.0166 38.0336C49.7162 38.3134 50.3139 38.7268 50.81 39.2737C51.306 39.8206 51.6876 40.4947 51.9547 41.296C52.2345 42.0846 52.3744 42.9812 52.3744 43.986C52.3744 45.0035 52.2345 45.9129 51.9547 46.7142C51.6876 47.5155 51.306 48.196 50.81 48.7556C50.3139 49.3152 49.7162 49.7477 49.0166 50.0529C48.3298 50.3454 47.5667 50.4917 46.7272 50.4917ZM46.7272 48.0688C47.5794 48.0688 48.2535 47.7063 48.7495 46.9813C49.2456 46.2436 49.4936 45.2452 49.4936 43.986C49.4936 42.7396 49.2456 41.7666 48.7495 41.0671C48.2535 40.3675 47.5794 40.0178 46.7272 40.0178C45.8751 40.0178 45.201 40.3675 44.7049 41.0671C44.2089 41.7666 43.9609 42.7396 43.9609 43.986C43.9609 45.2452 44.2089 46.2436 44.7049 46.9813C45.201 47.7063 45.8751 48.0688 46.7272 48.0688Z" fill="#CBDFE7"/>
<path d="M59.4447 50.4917C59.025 50.4917 58.5989 50.39 58.1664 50.1865C57.7467 49.9702 57.3524 49.6586 56.9836 49.2516H56.9073L56.6783 50.2628H54.4843V36.8889H57.2888V40.1704L57.2125 41.6203C57.5814 41.2896 57.9756 41.0353 58.3954 40.8572C58.8278 40.6664 59.2666 40.571 59.7118 40.571C60.2841 40.571 60.7992 40.6855 61.2571 40.9144C61.715 41.1434 62.1029 41.4677 62.4209 41.8874C62.7516 42.2944 62.9996 42.7968 63.1649 43.3946C63.343 43.9797 63.432 44.6347 63.432 45.3597C63.432 46.1737 63.3176 46.8986 63.0886 47.5346C62.8724 48.1705 62.5735 48.7111 62.1919 49.1562C61.8231 49.5887 61.397 49.9194 60.9137 50.1483C60.4431 50.3772 59.9534 50.4917 59.4447 50.4917ZM58.796 48.2023C59.2793 48.2023 59.6927 47.9861 60.0361 47.5537C60.3795 47.1085 60.5512 46.3962 60.5512 45.4169C60.5512 43.7126 60.0043 42.8604 58.9105 42.8604C58.3509 42.8604 57.8103 43.1466 57.2888 43.7189V47.5918C57.5432 47.8208 57.7976 47.9797 58.052 48.0688C58.3063 48.1578 58.5544 48.2023 58.796 48.2023Z" fill="#CBDFE7"/>
<path d="M67.4466 50.2628L64.2606 40.8H67.0842L68.3052 45.2643C68.4324 45.7349 68.5532 46.2182 68.6677 46.7142C68.7948 47.1975 68.922 47.6872 69.0492 48.1832H69.1255C69.24 47.6872 69.3545 47.1975 69.4689 46.7142C69.5961 46.2182 69.7233 45.7349 69.8505 45.2643L71.0906 40.8H73.7806L70.69 50.2628H67.4466Z" fill="#CBDFE7"/>
<path d="M75.258 50.2628V40.8H78.0625V50.2628H75.258ZM76.6507 39.4073C76.1801 39.4073 75.7922 39.2737 75.4869 39.0066C75.1817 38.7268 75.0291 38.3707 75.0291 37.9382C75.0291 37.5058 75.1817 37.156 75.4869 36.8889C75.7922 36.6218 76.1801 36.4883 76.6507 36.4883C77.134 36.4883 77.5219 36.6218 77.8145 36.8889C78.1197 37.156 78.2724 37.5058 78.2724 37.9382C78.2724 38.3707 78.1197 38.7268 77.8145 39.0066C77.5219 39.2737 77.134 39.4073 76.6507 39.4073Z" fill="#CBDFE7"/>
<path d="M82.1522 50.4917C81.6689 50.4917 81.2619 50.3264 80.9312 49.9957C80.6133 49.6523 80.4543 49.2325 80.4543 48.7365C80.4543 48.2278 80.6133 47.808 80.9312 47.4773C81.2619 47.1339 81.6689 46.9622 82.1522 46.9622C82.6356 46.9622 83.0362 47.1339 83.3542 47.4773C83.6849 47.808 83.8502 48.2278 83.8502 48.7365C83.8502 49.2325 83.6849 49.6523 83.3542 49.9957C83.0362 50.3264 82.6356 50.4917 82.1522 50.4917Z" fill="#CBDFE7"/>
<path d="M88.8259 50.4917C88.3426 50.4917 87.9356 50.4154 87.6049 50.2628C87.2742 50.1101 87.0071 49.9003 86.8036 49.6332C86.6128 49.3534 86.4729 49.0227 86.3839 48.6411C86.2949 48.2468 86.2503 47.808 86.2503 47.3247V36.8889H89.0548V47.4392C89.0548 47.7317 89.1057 47.9352 89.2075 48.0497C89.3219 48.1642 89.4364 48.2214 89.5509 48.2214C89.6145 48.2214 89.6653 48.2214 89.7035 48.2214C89.7544 48.2214 89.818 48.2087 89.8943 48.1832L90.2377 50.2628C90.0851 50.3264 89.8879 50.3772 89.6463 50.4154C89.4173 50.4663 89.1439 50.4917 88.8259 50.4917Z" fill="#CBDFE7"/>
<path d="M91.7092 50.2628V40.8H94.5138V50.2628H91.7092ZM93.102 39.4073C92.6314 39.4073 92.2434 39.2737 91.9382 39.0066C91.6329 38.7268 91.4803 38.3707 91.4803 37.9382C91.4803 37.5058 91.6329 37.156 91.9382 36.8889C92.2434 36.6218 92.6314 36.4883 93.102 36.4883C93.5853 36.4883 93.9732 36.6218 94.2657 36.8889C94.571 37.156 94.7236 37.5058 94.7236 37.9382C94.7236 38.3707 94.571 38.7268 94.2657 39.0066C93.9732 39.2737 93.5853 39.4073 93.102 39.4073Z" fill="#CBDFE7"/>
<path d="M96.9818 50.2628V40.8H99.2712L99.462 42.0019H99.5383C99.9453 41.6203 100.39 41.2896 100.874 41.0098C101.357 40.7173 101.923 40.571 102.572 40.571C103.602 40.571 104.346 40.9081 104.804 41.5822C105.275 42.2563 105.51 43.1911 105.51 44.3867V50.2628H102.705V44.7492C102.705 44.0623 102.61 43.5917 102.419 43.3374C102.241 43.083 101.949 42.9558 101.542 42.9558C101.185 42.9558 100.88 43.0385 100.626 43.2038C100.371 43.3564 100.092 43.579 99.7864 43.8716V50.2628H96.9818Z" fill="#CBDFE7"/>
<path d="M107.9 50.2628V36.8889H110.628V44.5584H110.704L113.699 40.8H116.752L113.432 44.6919L117 50.2628H113.967L111.83 46.5807L110.628 47.9352V50.2628H107.9Z" fill="#CBDFE7"/>
<path d="M18.9735 38.7315L12.5841 35V36.5992H8.85693C5.62224 36.5992 3 39.2245 3 42.463C3 45.7014 5.62224 48.3267 8.85693 48.3267H17.9086C20.9638 48.3267 23.4726 45.9847 23.7416 42.996H21.598C21.3396 44.8044 19.7862 46.1944 17.9086 46.1944H8.85693C6.79849 46.1944 5.12979 44.5238 5.12979 42.463C5.12979 40.4021 6.79849 38.7315 8.85693 38.7315L18.9735 38.7315Z" fill="#CBDFE7"/>
<path d="M15.2463 49.3928H24.8065C26.865 49.3928 28.5337 47.7222 28.5337 45.6614C28.5337 43.6005 26.865 41.9299 24.8065 41.9299H15.7549C13.8772 41.9299 12.3239 43.32 12.0655 45.1283H9.92183C10.1908 42.1397 12.6997 39.7976 15.7549 39.7976H24.8065C28.0412 39.7976 30.6634 42.4229 30.6634 45.6614C30.6634 48.8998 28.0412 51.5251 24.8065 51.5251H21.1033V53.1243L15.2463 49.3928Z" fill="#CBDFE7"/>
</svg>
